<svg xmlns="http://www.w3.org/2000/svg" width="475.781" height="303.325" viewBox="0 0 475.781 303.325">
  <g id="Grupo_7526" data-name="Grupo 7526" transform="translate(-624 -34.745)">
    <g id="Grupo_7525" data-name="Grupo 7525" transform="translate(394.136 -50.615)">
      <g id="Grupo_7489" data-name="Grupo 7489" transform="translate(229.864 115.856)">
        <path id="Trazado_11481" data-name="Trazado 11481" d="M692.6,456.956a58.289,58.289,0,0,0-18.724-16.863,30.282,30.282,0,0,0-39.1-35.991C619.628,366.2,581.626,304.03,495.4,304.593c-74.349.486-117.082,45.57-139.382,81.584a48.634,48.634,0,0,0-68.86,37.562,21.418,21.418,0,0,0-26.412,29.431c-12.318,8.112-22.682,19.044-27.6,33.768q-.325.973-.622,1.933c-11.82,38.116,17.241,76.678,57.147,76.678H636.4C692.25,565.549,725.512,502.074,692.6,456.956Z" transform="translate(-229.864 -304.589)" fill="#feeec6"/>
        <circle id="Elipse_508" data-name="Elipse 508" cx="11.767" cy="11.767" r="11.767" transform="translate(403.665 76.488) rotate(-45)" fill="#feeec6"/>
        <circle id="Elipse_509" data-name="Elipse 509" cx="28.324" cy="28.324" r="28.324" transform="translate(42.994 70.024) rotate(-45)" fill="#feeec6"/>
      </g>
      <g id="Grupo_7502" data-name="Grupo 7502" transform="translate(354.219 156.658)">
        <rect id="Rectángulo_1817" data-name="Rectángulo 1817" width="9.668" height="46.141" transform="translate(26.419 105.794)" fill="#1f1f1f"/>
        <path id="Rectángulo_1818" data-name="Rectángulo 1818" d="M1.648,0h0A1.648,1.648,0,0,1,3.3,1.648V25.6a0,0,0,0,1,0,0H0a0,0,0,0,1,0,0V1.648A1.648,1.648,0,0,1,1.648,0Z" transform="translate(189.394)" fill="#fff2f2"/>
        <rect id="Rectángulo_1819" data-name="Rectángulo 1819" width="3.735" height="46.141" transform="translate(32.351 105.794)" fill="#ffe6e6"/>
        <rect id="Rectángulo_1820" data-name="Rectángulo 1820" width="17.715" height="14.886" rx="5.125" transform="translate(22.395 105.794)" fill="#1f1f1f"/>
        <path id="Trazado_11482" data-name="Trazado 11482" d="M1299.148,1358.431h-10.958a3.378,3.378,0,0,0-3.378,3.378v2.28l17.715,1.483v-3.763A3.378,3.378,0,0,0,1299.148,1358.431Z" transform="translate(-1262.416 -1252.637)" fill="#e9a5ab"/>
        <rect id="Rectángulo_1821" data-name="Rectángulo 1821" width="8.631" height="2.832" transform="translate(37.707 115.983)" fill="#1f1f1f"/>
        <path id="Trazado_11483" data-name="Trazado 11483" d="M1234.164,1669.634l-1.908-1.859a2.163,2.163,0,0,1-.654-1.549h0a2.163,2.163,0,0,1,2.163-2.164h.493a2.163,2.163,0,0,1,1.484.589l1.511,1.425a5.916,5.916,0,0,0,4.058,1.611h18.469a1.813,1.813,0,0,1,1.813,1.813h0a1.813,1.813,0,0,1-1.813,1.813h-21.489A5.916,5.916,0,0,1,1234.164,1669.634Z" transform="translate(-1216.609 -1515.753)" fill="#1f1f1f"/>
        <path id="Trazado_11484" data-name="Trazado 11484" d="M1402.247,780.337h-158.73a32.037,32.037,0,0,0-32.037,32.037V847.1a18.044,18.044,0,0,0,18.044,18.044h24.03A18.044,18.044,0,0,0,1271.6,847.1h0a11.233,11.233,0,0,1,11.233-11.233h119.416Z" transform="translate(-1199.286 -754.96)" fill="#ffe6e6"/>
        <path id="Trazado_11485" data-name="Trazado 11485" d="M1314.585,780.337h-158.73a32.037,32.037,0,0,0-32.037,32.037V847.1a18.044,18.044,0,0,0,18.044,18.044h24.03a18.044,18.044,0,0,0,18.044-18.044h0a11.233,11.233,0,0,1,11.233-11.233h119.416Z" transform="translate(-1123.818 -754.96)" fill="#e7a5ae"/>
        <g id="Grupo_7490" data-name="Grupo 7490" transform="translate(0 48.921)">
          <path id="Trazado_11486" data-name="Trazado 11486" d="M1159.328,959c-14.558-.294-27.433-5.8-34.364-9.414a32.04,32.04,0,0,0-1.147,8.493v34.73a18.044,18.044,0,0,0,18.044,18.044h24.03a18.044,18.044,0,0,0,18.044-18.044h0a11.233,11.233,0,0,1,11.233-11.233h119.416V959.116C1268.051,959.207,1173.035,959.279,1159.328,959Z" transform="translate(-1123.818 -949.588)" fill="#e9a5ab"/>
        </g>
        <path id="Trazado_11487" data-name="Trazado 11487" d="M1295.909,1590.412h-167.89a4.2,4.2,0,0,1-4.2-4.2V1572.59a17.518,17.518,0,0,1,17.518-17.518h105.8c.412,0,.823-.022,1.232-.022,23.815,0,29.748-30.773,29.748-30.773Z" transform="translate(-1123.818 -1395.413)" fill="#dfa1bc"/>
        <path id="Trazado_11488" data-name="Trazado 11488" d="M2276.406,780.337h-34.26a15.362,15.362,0,0,0-15.317,15.317V942.7a7.276,7.276,0,0,0,7.255,7.254h50.385a7.276,7.276,0,0,0,7.255-7.254V795.654A15.362,15.362,0,0,0,2276.406,780.337Z" transform="translate(-2073.392 -754.96)" fill="#e9a5ab"/>
        <g id="Grupo_7491" data-name="Grupo 7491" transform="translate(153.436 25.377)" opacity="0.721">
          <path id="Trazado_11489" data-name="Trazado 11489" d="M2242.145,780.337a15.362,15.362,0,0,0-15.317,15.317V942.7a7.276,7.276,0,0,0,7.255,7.254h21.728V780.337Z" transform="translate(-2226.828 -780.337)" fill="#f4d1e1"/>
        </g>
        <path id="Trazado_11490" data-name="Trazado 11490" d="M2549.191,1121.357v-17.931l-23.292,7.42a20.121,20.121,0,0,0,12.318,9.487A28.668,28.668,0,0,0,2549.191,1121.357Z" transform="translate(-2330.861 -1033.105)" fill="#a067ad"/>
        <g id="Grupo_7492" data-name="Grupo 7492" transform="translate(187.86 42.969)">
          <path id="Trazado_11491" data-name="Trazado 11491" d="M2500.2,944.052l.272-37.008-11.245-.244c-8.248,0-14.934,8.394-14.934,18.748s6.686,18.748,14.934,18.748Z" transform="translate(-2474.297 -906.8)" fill="#f4d1e1"/>
          <ellipse id="Elipse_510" data-name="Elipse 510" cx="14.934" cy="18.504" rx="14.934" ry="18.504" transform="translate(11.109 0.244)" fill="#fff2f2"/>
        </g>
        <g id="Grupo_7493" data-name="Grupo 7493" transform="translate(157.877 131.426)">
          <rect id="Rectángulo_1822" data-name="Rectángulo 1822" width="17.763" height="16.534" transform="translate(1.161)" fill="#ffe6e6"/>
          <rect id="Rectángulo_1823" data-name="Rectángulo 1823" width="11.842" height="10.111" transform="translate(4.122 3.211)" fill="#efbdbd"/>
          <path id="Rectángulo_1824" data-name="Rectángulo 1824" d="M1.973,0H15.964a0,0,0,0,1,0,0V3.946a0,0,0,0,1,0,0H1.973A1.973,1.973,0,0,1,0,1.973v0A1.973,1.973,0,0,1,1.973,0Z" transform="translate(0 3.211)" fill="#fff"/>
        </g>
        <g id="Grupo_7494" data-name="Grupo 7494" transform="translate(106.169 39.316)">
          <path id="Trazado_11492" data-name="Trazado 11492" d="M1935.438,897.287l-.123-16.641,3.275-.11c3.709,0,6.715,3.774,6.715,8.43s-3.007,8.43-6.715,8.43Z" transform="translate(-1928.6 -880.536)" fill="#a067ad"/>
          <ellipse id="Elipse_511" data-name="Elipse 511" cx="6.715" cy="8.321" rx="6.715" ry="8.321" transform="translate(0 0.11)" fill="#fff2f2"/>
        </g>
        <g id="Grupo_7495" data-name="Grupo 7495" transform="translate(75.036 36.962)">
          <path id="Trazado_11493" data-name="Trazado 11493" d="M1725.138,885.044l-.157-21.287,4.189-.14c4.744,0,8.59,4.828,8.59,10.784s-3.846,10.784-8.59,10.784Z" transform="translate(-1716.391 -863.617)" fill="#a067ad"/>
          <ellipse id="Elipse_512" data-name="Elipse 512" cx="8.59" cy="10.644" rx="8.59" ry="10.644" transform="translate(0 0.14)" fill="#fff2f2"/>
        </g>
        <g id="Grupo_7496" data-name="Grupo 7496" transform="translate(43.631 113.504)">
          <path id="Trazado_11494" data-name="Trazado 11494" d="M1442.852,1421.6l.057-7.689-2.336-.051c-1.714,0-3.1,1.744-3.1,3.9s1.389,3.9,3.1,3.9Z" transform="translate(-1437.469 -1413.858)" fill="#a067ad"/>
          <path id="Trazado_11495" data-name="Trazado 11495" d="M1457.164,1421.911c-1.714,0-3.1-1.721-3.1-3.844s1.389-3.845,3.1-3.845,3.1,1.721,3.1,3.845S1458.878,1421.911,1457.164,1421.911Z" transform="translate(-1451.753 -1414.171)" fill="#e9a5ab"/>
        </g>
        <path id="Trazado_11496" data-name="Trazado 11496" d="M2201.546,961.978l-4.085,30.266h4.085Z" transform="translate(-2048.111 -911.333)" fill="#a067ad"/>
        <path id="Trazado_11497" data-name="Trazado 11497" d="M1313.735,1466.32l9.667.824v-1.7h-9.667Z" transform="translate(-1287.317 -1344.761)" fill="#e9a5ab"/>
        <g id="Grupo_7497" data-name="Grupo 7497" transform="translate(157.877 76.612)">
          <path id="Trazado_11498" data-name="Trazado 11498" d="M2261.768,1151.419c0,1.53-.674,2.771-1.5,2.771s-1.5-1.24-1.5-2.771.673-2.771,1.5-2.771S2261.768,1149.888,2261.768,1151.419Z" transform="translate(-2258.759 -1148.648)" fill="#ffe6e6"/>
          <path id="Trazado_11499" data-name="Trazado 11499" d="M2305.2,1151.419c0,1.53-.674,2.771-1.5,2.771s-1.5-1.24-1.5-2.771.674-2.771,1.5-2.771S2305.2,1149.888,2305.2,1151.419Z" transform="translate(-2296.153 -1148.648)" fill="#ffe6e6"/>
          <path id="Trazado_11500" data-name="Trazado 11500" d="M2348.64,1151.419c0,1.53-.674,2.771-1.5,2.771s-1.5-1.24-1.5-2.771.674-2.771,1.5-2.771S2348.64,1149.888,2348.64,1151.419Z" transform="translate(-2333.547 -1148.648)" fill="#ffe6e6"/>
          <path id="Trazado_11501" data-name="Trazado 11501" d="M2392.075,1151.419c0,1.53-.673,2.771-1.5,2.771s-1.5-1.24-1.5-2.771.673-2.771,1.5-2.771S2392.075,1149.888,2392.075,1151.419Z" transform="translate(-2370.94 -1148.648)" fill="#ffe6e6"/>
        </g>
        <g id="Grupo_7498" data-name="Grupo 7498" transform="translate(157.877 89.678)">
          <ellipse id="Elipse_513" data-name="Elipse 513" cx="1.504" cy="2.771" rx="1.504" ry="2.771" fill="#ffe6e6"/>
          <path id="Trazado_11502" data-name="Trazado 11502" d="M2305.2,1245.346c0,1.53-.674,2.77-1.5,2.77s-1.5-1.24-1.5-2.77.674-2.771,1.5-2.771S2305.2,1243.815,2305.2,1245.346Z" transform="translate(-2296.153 -1242.575)" fill="#ffe6e6"/>
          <ellipse id="Elipse_514" data-name="Elipse 514" cx="1.504" cy="2.771" rx="1.504" ry="2.771" transform="translate(12.084)" fill="#ffe6e6"/>
          <path id="Trazado_11503" data-name="Trazado 11503" d="M2392.075,1245.346c0,1.53-.673,2.77-1.5,2.77s-1.5-1.24-1.5-2.77.673-2.771,1.5-2.771S2392.075,1243.815,2392.075,1245.346Z" transform="translate(-2370.94 -1242.575)" fill="#ffe6e6"/>
        </g>
        <g id="Grupo_7499" data-name="Grupo 7499" transform="translate(157.877 102.743)">
          <path id="Trazado_11504" data-name="Trazado 11504" d="M2261.768,1339.272c0,1.53-.674,2.771-1.5,2.771s-1.5-1.24-1.5-2.771.673-2.771,1.5-2.771S2261.768,1337.741,2261.768,1339.272Z" transform="translate(-2258.759 -1336.501)" fill="#ffe6e6"/>
          <path id="Trazado_11505" data-name="Trazado 11505" d="M2305.2,1339.272c0,1.53-.674,2.771-1.5,2.771s-1.5-1.24-1.5-2.771.674-2.771,1.5-2.771S2305.2,1337.741,2305.2,1339.272Z" transform="translate(-2296.153 -1336.501)" fill="#ffe6e6"/>
          <path id="Trazado_11506" data-name="Trazado 11506" d="M2348.64,1339.272c0,1.53-.674,2.771-1.5,2.771s-1.5-1.24-1.5-2.771.674-2.771,1.5-2.771S2348.64,1337.741,2348.64,1339.272Z" transform="translate(-2333.547 -1336.501)" fill="#ffe6e6"/>
          <path id="Trazado_11507" data-name="Trazado 11507" d="M2392.075,1339.272c0,1.53-.673,2.771-1.5,2.771s-1.5-1.24-1.5-2.771.673-2.771,1.5-2.771S2392.075,1337.741,2392.075,1339.272Z" transform="translate(-2370.94 -1336.501)" fill="#ffe6e6"/>
        </g>
        <g id="Grupo_7500" data-name="Grupo 7500" transform="translate(157.877 115.809)">
          <ellipse id="Elipse_515" data-name="Elipse 515" cx="1.504" cy="2.771" rx="1.504" ry="2.771" fill="#ffe6e6"/>
          <path id="Trazado_11508" data-name="Trazado 11508" d="M2305.2,1433.2c0,1.53-.674,2.77-1.5,2.77s-1.5-1.24-1.5-2.77.674-2.771,1.5-2.771S2305.2,1431.668,2305.2,1433.2Z" transform="translate(-2296.153 -1430.428)" fill="#ffe6e6"/>
          <ellipse id="Elipse_516" data-name="Elipse 516" cx="1.504" cy="2.771" rx="1.504" ry="2.771" transform="translate(12.084)" fill="#ffe6e6"/>
          <path id="Trazado_11509" data-name="Trazado 11509" d="M2392.075,1433.2c0,1.53-.673,2.77-1.5,2.77s-1.5-1.24-1.5-2.77.673-2.771,1.5-2.771S2392.075,1431.668,2392.075,1433.2Z" transform="translate(-2370.94 -1430.428)" fill="#ffe6e6"/>
        </g>
        <path id="Trazado_11510" data-name="Trazado 11510" d="M1144.259,1010.943s-3.3,32.738,1.538,38.89,9.228,8.13,14.721,8.349,6.811-4.614,1.1-7.031-11.206-2.417-12.524-7.47S1144.259,1010.943,1144.259,1010.943Z" transform="translate(-1140.471 -953.487)" fill="#f4d1e1"/>
        <path id="Trazado_11511" data-name="Trazado 11511" d="M1142.884,1787.791s-1.155-12.194,8.238-15.984,105.959-1.483,105.959-1.483Z" transform="translate(-1140.193 -1606.634)" fill="#f4d1e1"/>
        <rect id="Rectángulo_1825" data-name="Rectángulo 1825" width="13.677" height="7.086" transform="translate(184.45 20.983)" fill="#a067ad"/>
        <g id="Grupo_7501" data-name="Grupo 7501" transform="translate(28.065 25.377)">
          <path id="Trazado_11512" data-name="Trazado 11512" d="M1381.916,780.337l-1.666,1.607a15.078,15.078,0,0,0-4.123,10.383v66.449h1.977V792.326a13.088,13.088,0,0,1,3.551-8.993l3.108-3Z" transform="translate(-1369.094 -780.337)" fill="#ffe6e6"/>
          <path id="Trazado_11513" data-name="Trazado 11513" d="M1327.545,792.326a13.087,13.087,0,0,1,3.552-8.993l3.108-3h-2.848l-1.666,1.607a15.079,15.079,0,0,0-4.123,10.383v66.449h1.977Z" transform="translate(-1325.568 -780.337)" fill="#ffe6e6"/>
        </g>
      </g>
      <g id="Grupo_7508" data-name="Grupo 7508" transform="translate(417.394 85.36)">
        <path id="Trazado_11514" data-name="Trazado 11514" d="M1735.691,183.336a2.041,2.041,0,0,1,3.509,1.5.528.528,0,0,1,.705.1c.338.367,0,1.117,0,1.117a1.574,1.574,0,0,1,.691,1.736,1.688,1.688,0,0,1-1.381,1.313.644.644,0,0,1-.353.948c-.72.337-1.043.146-1.043.146s-.493,1.849-2.171,1.6-2.061-1.027-2.061-1.027a3.943,3.943,0,0,1-2.616-.133,1.5,1.5,0,0,1-.176-2.483,1.012,1.012,0,0,1-.132-1.249s-.485-.264-.309-.661a.48.48,0,0,1,.558-.294,2.388,2.388,0,0,1,1.4-3.169C1734.63,181.664,1735.691,183.336,1735.691,183.336Z" transform="translate(-1709.039 -168.898)" fill="#311e69"/>
        <path id="Trazado_11515" data-name="Trazado 11515" d="M1793.471,270.8c2.116-.315,4.277-3.978,6.074-6.031s-5.831-8.229-8.326-7.258S1791.508,271.095,1793.471,270.8Z" transform="translate(-1760.704 -233.477)" fill="#ad263d"/>
        <path id="Trazado_11516" data-name="Trazado 11516" d="M1621.04,295.641c1.131-.347-.22-16.736-.2-18.175.054-4.7,4.2-7.382,5.421-10.3,1.411-3.363-4.278-8.618-1.024-12.552,1.4-1.695,3.867-3.019,7.82-3.018a2.737,2.737,0,0,1,2.357.917c.661.862,2.5,2.511,2.541,4.264.042,1.773-1.716,3.656-1.134,5.678.452,1.571.963,3.461,1.486,5.455,1.854,7.071,3.383,7.461,3.86,15.708.615,10.619-2.982,24.628-12,37.905-.479.7-2.519,0-2.519,0-.048-1.1,1.854-16.839,5.284-22.418,1.25-2.034.034-19.149-.476-19.089-.364.043,2.359,26.212-23.052,27.564l-.721-2.162S1614.237,297.727,1621.04,295.641Z" transform="translate(-1604.409 -228.472)" fill="#ff6161"/>
        <path id="Trazado_11517" data-name="Trazado 11517" d="M1773.515,533c-.14,1.661-5.451,16.576-5.533,18.6a2.015,2.015,0,0,0,.265,1.1c6.889-10.634,10.353-21.638,11.006-30.922C1776.911,525.916,1773.6,531.929,1773.515,533Z" transform="translate(-1741.549 -461.064)" fill="#ad263d"/>
        <path id="Trazado_11518" data-name="Trazado 11518" d="M1623.871,549c12.328-1.144,17.607-8.392,19.876-15.156a3.045,3.045,0,0,0-1.825-1.63c-3.2-.855-2.962,6.63-4.452,7.918a48.859,48.859,0,0,1-9.845,5.47A6.519,6.519,0,0,0,1623.871,549Z" transform="translate(-1617.486 -469.997)" fill="#ad263d"/>
        <path id="Trazado_11519" data-name="Trazado 11519" d="M1717.389,283.619c-.478-8.248-2.006-8.637-3.86-15.708-.523-1.994-1.034-3.883-1.486-5.455-.582-2.022,1.176-3.905,1.134-5.678-.041-1.753-1.88-3.4-2.542-4.264a2.736,2.736,0,0,0-2.357-.917c-3.953,0-6.418,1.324-7.82,3.018-3.254,3.934,2.435,9.188,1.024,12.552-1.224,2.917-5.367,5.6-5.421,10.3-.01.9.514,7.646.632,12.659a16.946,16.946,0,0,0,8.621,3.773,15.568,15.568,0,0,0,2.11.129c.427,0,.852-.018,1.275-.038a50.476,50.476,0,0,0,8.243-1.13A46.5,46.5,0,0,0,1717.389,283.619Z" transform="translate(-1679.634 -228.472)" fill="#311e69"/>
        <path id="Trazado_11520" data-name="Trazado 11520" d="M1741.065,267.911c-.523-1.994-1.034-3.883-1.486-5.455-.582-2.022,1.176-3.905,1.135-5.678-.041-1.753-1.88-3.4-2.542-4.264a2.736,2.736,0,0,0-2.357-.917,15.545,15.545,0,0,0-1.826.106c.424,1.034,1.125,2.334,1.826,4.162,1.5,3.9,3.746,15.184,4.217,18.685s-.74,12.117-4.75,14.339c-2.62,1.452-5.529,2.842-7.236,3.634a16.3,16.3,0,0,0,4.8,1.376,15.57,15.57,0,0,0,2.111.129c.426,0,.852-.018,1.275-.038a50.472,50.472,0,0,0,8.243-1.13,46.5,46.5,0,0,0,.446-9.24C1744.448,275.372,1742.919,274.982,1741.065,267.911Z" transform="translate(-1707.171 -228.472)" fill="#1e1240"/>
        <path id="Trazado_11521" data-name="Trazado 11521" d="M1750.7,255.646a4.241,4.241,0,0,1,3.317-.819c2.349.177,3.626,4.709,3.469,6.729-.1,1.316-.728,5.726-.728,5.726a21.79,21.79,0,0,0-2.57-7.264C1752.718,257.327,1749.788,256.211,1750.7,255.646Z" transform="translate(-1726.526 -231.236)" fill="#ffe6e6"/>
        <path id="Trazado_11522" data-name="Trazado 11522" d="M1759.662,234.307l.035,3.378c.008.556,1.41,1.953,2.271,1.229.252-.212-.1-.968-.358-1.539l-.728-2.885Z" transform="translate(-1734.388 -213.588)" fill="#ff6161"/>
        <path id="Trazado_11523" data-name="Trazado 11523" d="M1762.445,239.618a1.942,1.942,0,0,1-1.47-1.344l1.141.042Z" transform="translate(-1735.518 -217.003)" fill="#311e69"/>
        <path id="Trazado_11524" data-name="Trazado 11524" d="M1758.537,211.921l-.173,1.3a1.94,1.94,0,0,0,1.571,2.194,1.664,1.664,0,0,0,1.962-1.617,4.046,4.046,0,0,0-.959-2.438C1760.292,210.281,1758.846,210.44,1758.537,211.921Z" transform="translate(-1733.255 -193.231)" fill="#ff6161"/>
        <path id="Trazado_11525" data-name="Trazado 11525" d="M1755.612,224.242a1.638,1.638,0,0,1-.094-.332c-.04-.215-.15-.526-.441-.309-.422.316-.144,1.452.4,1.44C1755.89,225.031,1755.724,224.51,1755.612,224.242Z" transform="translate(-1730.265 -204.307)" fill="#ff6161"/>
        <path id="Trazado_11526" data-name="Trazado 11526" d="M1779.593,220.451a1.626,1.626,0,0,0,0-.345c-.02-.218,0-.547.34-.418.492.189.534,1.358,0,1.5C1779.541,221.287,1779.558,220.74,1779.593,220.451Z" transform="translate(-1751.532 -200.978)" fill="#ff6161"/>
        <path id="Trazado_11527" data-name="Trazado 11527" d="M1771.141,230.662a3.8,3.8,0,0,0,1.241-.193,1.514,1.514,0,0,1-.338.767C1771.79,231.453,1771.417,231.192,1771.141,230.662Z" transform="translate(-1744.27 -210.283)" fill="#fff"/>
        <path id="Trazado_11528" data-name="Trazado 11528" d="M1761.247,234.045a2.545,2.545,0,0,0,1.355-.41,2.625,2.625,0,0,0,.505-.841c0,.02,0,.039,0,.058a1.664,1.664,0,0,1-1.962,1.617,1.862,1.862,0,0,1-1.394-1.065A2.407,2.407,0,0,0,1761.247,234.045Z" transform="translate(-1734.462 -212.285)" fill="#ad263d"/>
        <g id="Grupo_7503" data-name="Grupo 7503" transform="translate(22.991 91.093)">
          <path id="Trazado_11529" data-name="Trazado 11529" d="M1746.147,741.727c.464.417,2.34,2.867,3,2.934a2.571,2.571,0,0,0,.843-.051,6.38,6.38,0,0,1-1.307-1.958,5.117,5.117,0,0,1-.591-2.444l-2.778.93s-.049.117-.112.3A1.369,1.369,0,0,1,1746.147,741.727Z" transform="translate(-1744.933 -740.207)" fill="#ff6161"/>
          <path id="Trazado_11530" data-name="Trazado 11530" d="M1750.017,753.12a4.2,4.2,0,0,0-1.47-.782.875.875,0,0,1-.239-.14,2.574,2.574,0,0,1-.843.051c-.663-.066-2.539-2.517-3-2.934a1.368,1.368,0,0,0-.942-.293,3.361,3.361,0,0,0-.24,1.593,15.507,15.507,0,0,1,.5,3.146h.828v-2.119a4.235,4.235,0,0,1,.96.7,2.307,2.307,0,0,1,.345.611,1.345,1.345,0,0,0,1.243.813h2.6A.373.373,0,0,0,1750.017,753.12Z" transform="translate(-1743.249 -747.796)" fill="#311e69"/>
        </g>
        <g id="Grupo_7504" data-name="Grupo 7504" transform="translate(0 76.588)">
          <path id="Trazado_11531" data-name="Trazado 11531" d="M1598.892,636.916c-.234.578-1.9,3.178-1.734,3.823a2.589,2.589,0,0,0,.336.775,6.387,6.387,0,0,1,1.4-1.9,5.121,5.121,0,0,1,2.1-1.389l-1.821-2.294s-.126-.006-.317,0A1.371,1.371,0,0,1,1598.892,636.916Z" transform="translate(-1594.478 -635.931)" fill="#ff6161"/>
          <path id="Trazado_11532" data-name="Trazado 11532" d="M1580.7,643.438a4.205,4.205,0,0,0,.234-1.649.877.877,0,0,1,.05-.272,2.582,2.582,0,0,1-.336-.776c-.164-.645,1.5-3.245,1.735-3.823a1.37,1.37,0,0,0-.046-.985,3.359,3.359,0,0,0-1.579.318,15.521,15.521,0,0,1-2.789,1.539l.282.778,1.993-.722a4.229,4.229,0,0,1-.327,1.14,2.3,2.3,0,0,1-.456.532,1.345,1.345,0,0,0-.341,1.445l.887,2.447A.373.373,0,0,0,1580.7,643.438Z" transform="translate(-1577.971 -635.934)" fill="#311e69"/>
        </g>
        <g id="Grupo_7505" data-name="Grupo 7505" transform="translate(29.147 0)">
          <path id="Trazado_11533" data-name="Trazado 11533" d="M1886.329,353.084l-4.016-5.763c-.239-.956-4.468-.723-9.445.521s-8.819,3.027-8.58,3.983l-.833,6.975a.551.551,0,0,0-.042.353c.307,1.226,5.73.927,12.115-.668s11.311-3.883,11-5.109A.552.552,0,0,0,1886.329,353.084Z" transform="translate(-1852.842 -310.374)" fill="#db9565"/>
          <path id="Trazado_11534" data-name="Trazado 11534" d="M1836.8,143.754l-17.7,4.423,7.194,28.7c.288.914,4.4.681,9.249-.529s8.586-2.942,8.41-3.884Z" transform="translate(-1814.706 -135.631)" fill="#311e69"/>
          <path id="Trazado_11535" data-name="Trazado 11535" d="M1787.6,96.565l4.219,6.054c.239.956,4.468.723,9.445-.521s8.819-3.027,8.58-3.984l.875-7.327Z" transform="translate(-1787.585 -90.032)" fill="#db9565"/>
          <path id="Trazado_11536" data-name="Trazado 11536" d="M1810.633,86.115c.307,1.226-4.62,3.514-11,5.109s-11.808,1.895-12.114.668,4.62-3.514,11-5.109S1810.327,84.888,1810.633,86.115Z" transform="translate(-1787.501 -85.36)" fill="#ffb176"/>
          <path id="Trazado_11537" data-name="Trazado 11537" d="M1847.732,101.828c.117.469-1.766,1.343-4.208,1.954s-4.515.724-4.632.256,1.767-1.344,4.208-1.954S1847.614,101.359,1847.732,101.828Z" transform="translate(-1831.739 -99.288)" fill="#db9565"/>
          <path id="Trazado_11538" data-name="Trazado 11538" d="M1829.024,189.793a11.456,11.456,0,0,0,2.484.4,20.3,20.3,0,0,0,2.5-.01c.835-.034,1.666-.151,2.5-.251l2.513-.385c-.393.168-.8.3-1.2.456-.41.119-.82.245-1.237.343a15.262,15.262,0,0,1-2.547.375,12.2,12.2,0,0,1-2.58-.111A6.813,6.813,0,0,1,1829.024,189.793Z" transform="translate(-1823.248 -175.056)" fill="#614cd4"/>
          <path id="Trazado_11539" data-name="Trazado 11539" d="M1845.688,204.3c.6.05,1.2.093,1.794.088.6.016,1.191,0,1.785-.031a23.018,23.018,0,0,0,3.516-.474,17.747,17.747,0,0,0,3.374-1.061l.815-.357.782-.426c.544-.252,1.007-.633,1.536-.929a12.168,12.168,0,0,1-2.957,2.087l-.4.215-.422.173c-.283.111-.561.239-.849.337a16.987,16.987,0,0,1-1.76.487,16.209,16.209,0,0,1-3.62.361A14.33,14.33,0,0,1,1845.688,204.3Z" transform="translate(-1837.594 -185.012)" fill="#614cd4"/>
          <path id="Trazado_11540" data-name="Trazado 11540" d="M1848.219,232.81a12.08,12.08,0,0,0,3.665.339,17.405,17.405,0,0,0,1.827-.207c.307-.041.607-.117.916-.167s.609-.138.927-.187a7.552,7.552,0,0,1-1.748.763,8.481,8.481,0,0,1-1.893.335,7.651,7.651,0,0,1-1.922-.151A4.813,4.813,0,0,1,1848.219,232.81Z" transform="translate(-1839.773 -212.109)" fill="#614cd4"/>
          <path id="Trazado_11541" data-name="Trazado 11541" d="M1857.594,285.525a7.618,7.618,0,0,0,1.951.556,10.412,10.412,0,0,0,2.009.144,16.385,16.385,0,0,0,3.981-.57,29.134,29.134,0,0,0,3.861-1.242,13.359,13.359,0,0,0,1.817-.893,6.136,6.136,0,0,0,1.6-1.243,5.5,5.5,0,0,1-1.461,1.452,12.326,12.326,0,0,1-1.79,1.046,20.327,20.327,0,0,1-3.892,1.4,13.316,13.316,0,0,1-4.122.484A7.959,7.959,0,0,1,1857.594,285.525Z" transform="translate(-1847.844 -254.885)" fill="#614cd4"/>
          <path id="Trazado_11542" data-name="Trazado 11542" d="M1894.742,293.232c.771-.135,1.484-.273,2.21-.427l1.091-.234c.368-.077.737-.159,1.132-.2a5.083,5.083,0,0,1-2.111.964,5.436,5.436,0,0,1-1.166.112A3.135,3.135,0,0,1,1894.742,293.232Z" transform="translate(-1879.824 -263.571)" fill="#614cd4"/>
          <path id="Trazado_11543" data-name="Trazado 11543" d="M1872.321,324.769a17.5,17.5,0,0,0,2.193.082,21.489,21.489,0,0,0,2.165-.154c.716-.1,1.433-.2,2.143-.364s1.42-.334,2.144-.51c-.321.186-.654.354-.99.515a10.8,10.8,0,0,1-1.045.4,11.573,11.573,0,0,1-2.188.492,11.07,11.07,0,0,1-2.245.039A7.258,7.258,0,0,1,1872.321,324.769Z" transform="translate(-1860.522 -290.651)" fill="#614cd4"/>
          <path id="Trazado_11544" data-name="Trazado 11544" d="M1915.043,320.9c.67-.141,1.326-.3,1.978-.453s1.3-.332,1.93-.533,1.255-.432,1.871-.685a18.061,18.061,0,0,0,1.8-.915,6.585,6.585,0,0,1-1.607,1.291,9.928,9.928,0,0,1-1.9.823A10.706,10.706,0,0,1,1915.043,320.9Z" transform="translate(-1897.301 -285.904)" fill="#614cd4"/>
          <path id="Trazado_11545" data-name="Trazado 11545" d="M1850.438,261.145c.7-.082,1.337-.119,1.989-.176l.979-.077c.33-.022.661-.056,1.017-.049a3.925,3.925,0,0,1-1.953.662,4.482,4.482,0,0,1-1.038-.039A2.885,2.885,0,0,1,1850.438,261.145Z" transform="translate(-1841.683 -236.432)" fill="#614cd4"/>
        </g>
        <g id="Grupo_7506" data-name="Grupo 7506" transform="translate(20.211 22.175)">
          <path id="Trazado_11546" data-name="Trazado 11546" d="M1882.246,246.909a12.866,12.866,0,0,0,.374-1.3c.052-.349.044-1.2.413-.658s-.009,1.1.479,1.112a2.726,2.726,0,0,0,1.867-1.108c.137-.478.7.238.353,1.259s-1.44,2.274-2.741,1.928S1882.246,246.909,1882.246,246.909Z" transform="translate(-1860.029 -244.771)" fill="#ff6161"/>
          <path id="Trazado_11547" data-name="Trazado 11547" d="M1723.767,261.738c4.12-4.12,11,8.831,13.2,8.034,1.171-.424,7.69-12.373,9.469-11.586,2.65,1.173-1.21,12.945-7.3,17.008C1733.711,278.823,1720.532,264.974,1723.767,261.738Z" transform="translate(-1723.263 -256.288)" fill="#ff6161"/>
          <path id="Trazado_11548" data-name="Trazado 11548" d="M1723.767,269.7a3.312,3.312,0,0,1,.263-.234,11.312,11.312,0,0,0,1,1.983c.9,1.072,2.607,2.028,4.209,3.485s3.293,4.365,4.278,5.9,3.186.9,4.953.666,2-2.694,2.723-3.939,1.854-.7,2.665-1.97,1.3-6.286,2.347-7.531a1.658,1.658,0,0,1,1.012-.663c.615,3.4-2.937,12.328-8.075,15.759C1733.711,286.78,1720.532,272.932,1723.767,269.7Z" transform="translate(-1723.263 -264.245)" fill="#ad263d"/>
        </g>
        <g id="Grupo_7507" data-name="Grupo 7507" transform="translate(25.296 22.763)">
          <path id="Trazado_11549" data-name="Trazado 11549" d="M1761.743,250.021l-.191-.757a2.111,2.111,0,0,1-1.735-.267l.014,1.334c.008.556,1.409,1.953,2.27,1.229C1762.353,251.348,1762,250.592,1761.743,250.021Z" transform="translate(-1759.816 -248.997)" fill="#ffe6e6"/>
        </g>
        <path id="Trazado_11550" data-name="Trazado 11550" d="M1757.365,464.99s-3.366,4.937-5.879,6.642S1751.216,467.907,1757.365,464.99Z" transform="translate(-1726.477 -412.181)" fill="#1e1240"/>
      </g>
      <g id="Grupo_7509" data-name="Grupo 7509" transform="translate(533.595 129.545)">
        <path id="Trazado_11551" data-name="Trazado 11551" d="M2443.018,678.186l-2.625-6.515c-.019-.985-4.193-1.7-9.322-1.606s-9.272.977-9.254,1.963l-2.372,6.611a.551.551,0,0,0-.12.334c.024,1.264,5.378,2.186,11.957,2.059s11.893-1.253,11.869-2.517A.55.55,0,0,0,2443.018,678.186Z" transform="translate(-2418.487 -632.907)" fill="#db9565"/>
        <path id="Trazado_11552" data-name="Trazado 11552" d="M2452.58,467.842l-18.24.351.59,29.584c.076.955,4.14,1.649,9.132,1.554s9.027-.946,9.066-1.9Z" transform="translate(-2431.415 -458.822)" fill="#ad263d"/>
        <path id="Trazado_11553" data-name="Trazado 11553" d="M2413.308,418.345l2.758,6.845c.019.985,4.193,1.7,9.322,1.605s9.272-.977,9.254-1.963l2.492-6.946Z" transform="translate(-2413.308 -415.816)" fill="#db9565"/>
        <path id="Trazado_11554" data-name="Trazado 11554" d="M2437.134,405.071c.024,1.264-5.29,2.391-11.869,2.517s-11.932-.8-11.957-2.059,5.29-2.391,11.869-2.517S2437.109,403.807,2437.134,405.071Z" transform="translate(-2413.308 -403)" fill="#ffb176"/>
        <path id="Trazado_11555" data-name="Trazado 11555" d="M2475.312,414c.009.483-2.022.914-4.538.962s-4.562-.3-4.572-.787,2.023-.914,4.538-.962S2475.3,413.521,2475.312,414Z" transform="translate(-2458.844 -411.791)" fill="#db9565"/>
        <path id="Trazado_11556" data-name="Trazado 11556" d="M2440.486,487.936a11.464,11.464,0,0,0,2.331.948,20.334,20.334,0,0,0,2.441.55c.822.154,1.657.226,2.494.315l2.535.187c-.421.076-.845.117-1.271.176-.426.024-.854.055-1.282.057a15.277,15.277,0,0,1-2.566-.2,12.2,12.2,0,0,1-2.49-.686A6.809,6.809,0,0,1,2440.486,487.936Z" transform="translate(-2436.706 -476.121)" fill="#ff6161"/>
        <path id="Trazado_11557" data-name="Trazado 11557" d="M2449.4,523.17c.574.183,1.145.358,1.729.487.577.149,1.161.268,1.746.369a23.012,23.012,0,0,0,3.533.324,17.763,17.763,0,0,0,3.526-.279l.873-.166.857-.241c.587-.124,1.123-.392,1.705-.561a12.168,12.168,0,0,1-3.349,1.373l-.441.119-.45.074c-.3.045-.6.107-.9.138a17.015,17.015,0,0,1-1.825.081,16.2,16.2,0,0,1-3.609-.459A14.332,14.332,0,0,1,2449.4,523.17Z" transform="translate(-2444.379 -506.396)" fill="#ff6161"/>
        <path id="Trazado_11558" data-name="Trazado 11558" d="M2449.6,534.022a12.088,12.088,0,0,0,3.5,1.15,17.441,17.441,0,0,0,1.827.207c.308.029.617.022.93.043s.625,0,.946.026a7.553,7.553,0,0,1-1.875.352,8.478,8.478,0,0,1-1.92-.1,7.648,7.648,0,0,1-1.84-.578A4.816,4.816,0,0,1,2449.6,534.022Z" transform="translate(-2444.552 -515.796)" fill="#ff6161"/>
        <path id="Trazado_11559" data-name="Trazado 11559" d="M2442.751,605.75a7.632,7.632,0,0,0,1.777.979,10.433,10.433,0,0,0,1.927.589,16.374,16.374,0,0,0,4.008.335,29.151,29.151,0,0,0,4.041-.346,13.368,13.368,0,0,0,1.97-.464,6.136,6.136,0,0,0,1.836-.854,5.5,5.5,0,0,1-1.749,1.088,12.331,12.331,0,0,1-1.979.618,20.321,20.321,0,0,1-4.105.49,13.317,13.317,0,0,1-4.126-.45A7.96,7.96,0,0,1,2442.751,605.75Z" transform="translate(-2438.655 -577.546)" fill="#ff6161"/>
        <path id="Trazado_11560" data-name="Trazado 11560" d="M2480.532,607.2c.781.041,1.508.066,2.25.078l1.116.016c.376.008.754.01,1.148.055a5.082,5.082,0,0,1-2.273.467,5.444,5.444,0,0,1-1.161-.151A3.139,3.139,0,0,1,2480.532,607.2Z" transform="translate(-2471.181 -578.796)" fill="#ff6161"/>
        <path id="Trazado_11561" data-name="Trazado 11561" d="M2451.511,633.413a17.493,17.493,0,0,0,2.119.571,21.5,21.5,0,0,0,2.144.334c.72.068,1.443.123,2.17.125s1.458-.008,2.2-.017c-.354.109-.716.2-1.08.281a10.772,10.772,0,0,1-1.108.156,11.572,11.572,0,0,1-2.242-.009,11.056,11.056,0,0,1-2.2-.465A7.253,7.253,0,0,1,2451.511,633.413Z" transform="translate(-2446.197 -601.361)" fill="#ff6161"/>
        <path id="Trazado_11562" data-name="Trazado 11562" d="M2491.744,643.982c.685.013,1.359,0,2.03,0s1.337-.034,2-.088,1.32-.14,1.977-.249a17.984,17.984,0,0,0,1.956-.49,6.59,6.59,0,0,1-1.856.9,9.936,9.936,0,0,1-2.035.378A10.715,10.715,0,0,1,2491.744,643.982Z" transform="translate(-2480.833 -609.748)" fill="#ff6161"/>
        <path id="Trazado_11563" data-name="Trazado 11563" d="M2445.31,562.623c.7.075,1.329.183,1.977.274l.971.144c.327.052.657.094,1,.18a3.926,3.926,0,0,1-2.052.208,4.5,4.5,0,0,1-1-.27A2.884,2.884,0,0,1,2445.31,562.623Z" transform="translate(-2440.858 -540.418)" fill="#ff6161"/>
      </g>
      <g id="Grupo_7514" data-name="Grupo 7514" transform="translate(583 275.818)">
        <path id="Trazado_11564" data-name="Trazado 11564" d="M2710.588,1532.67c-3.866-2.821-11.694,10.24-15.625,11.176s-14.222-1.887-16.608-.705-3.679,5.907,2.759,7.093c7.111,1.31,13.522,1.8,19.37-2.083S2714.846,1535.777,2710.588,1532.67Z" transform="translate(-2668.21 -1521.455)" fill="#1e1240"/>
        <path id="Trazado_11565" data-name="Trazado 11565" d="M2895.821,1459.11a4.241,4.241,0,0,1,.934-3.388c1.048-1.1,2.882-2.051,5.725-.006s1.944,5.305,4.6,6.745,4.825.347,6.619,1.907,2.088,2.609,1.792,3-1.141-.97-1.435-.945,1.208.62,1.41,3.429-2.071,6.766-6.18,6.312S2895.177,1464.6,2895.821,1459.11Z" transform="translate(-2857.064 -1454.514)" fill="#ff9c9c"/>
        <g id="Grupo_7510" data-name="Grupo 7510" transform="translate(42.07 1.235)">
          <path id="Trazado_11566" data-name="Trazado 11566" d="M2936.293,1475.01c.3-.391,0-1.44-1.792-3s-3.963-.467-6.619-1.906-1.771-4.665-4.56-6.711a18.629,18.629,0,0,1,1.04,2.692c.5,1.809,2.526,5.253.468,7.392-.537.559-2.73,1.125-4.895,1.568,3.135,4.411,7.7,8.492,10.152,8.763,4.109.454,6.382-3.5,6.181-6.312s-1.7-3.4-1.41-3.429S2936,1475.4,2936.293,1475.01Z" transform="translate(-2919.935 -1463.392)" fill="#d95f76"/>
        </g>
        <path id="Trazado_11567" data-name="Trazado 11567" d="M2858.666,1520.5s-4.208,1.235-5.892,3.48-.187,7.3-.327,10.339-7.158,15.158-6.035,17.4,5.006,3.275,5.006,3.275,9.526-18.019,8.669-21.992A123.581,123.581,0,0,1,2858.666,1520.5Z" transform="translate(-2814.465 -1511.324)" fill="#311e69"/>
        <path id="Trazado_11568" data-name="Trazado 11568" d="M2862.5,2093.178a4.468,4.468,0,0,1-.673-2.67s-4.752-2.341-5.475-1.145c-.371.613,1.1,1.709.486,2.64a3.129,3.129,0,0,1-1.684,1.2c-1.66.813-3.711,1.864-3.792,2.425-.135.935,9.554,1.087,11.181.21C2863.4,2095.385,2863.261,2094.342,2862.5,2093.178Z" transform="translate(-2818.834 -2000.759)" fill="#ff9c9c"/>
        <path id="Trazado_11569" data-name="Trazado 11569" d="M3022.914,2094.747a5.268,5.268,0,0,1-.848-2.128,1.383,1.383,0,0,0-.865-1.052c-1.523-.606-4.8-1.664-5.63.068-.309.646.772,2.811-.275,3.229-1.66.813-3.711,1.864-3.792,2.425-.135.934,9.555,1.087,11.182.21C3023.536,2097.041,3023.671,2095.911,3022.914,2094.747Z" transform="translate(-2956.695 -2002.193)" fill="#ff9c9c"/>
        <g id="Grupo_7512" data-name="Grupo 7512" transform="translate(0 3.145)">
          <g id="Grupo_7511" data-name="Grupo 7511" transform="translate(4.43 86.074)">
            <path id="Trazado_11570" data-name="Trazado 11570" d="M2673.185,2117.6l-23.675-.056-.156,2.29c0,1.679,5.37,3.041,11.993,3.041s11.994-1.362,11.994-3.041Z" transform="translate(-2649.353 -2114.533)" fill="#db9565"/>
            <ellipse id="Elipse_517" data-name="Elipse 517" cx="11.838" cy="3.041" rx="11.838" ry="3.041" transform="translate(0.156)" fill="#ffb176"/>
          </g>
          <path id="Rectángulo_1826" data-name="Rectángulo 1826" d="M0,0H2.407a0,0,0,0,1,0,0V41.559a1.2,1.2,0,0,1-1.2,1.2h0a1.2,1.2,0,0,1-1.2-1.2V0A0,0,0,0,1,0,0Z" transform="translate(15.22 46.324)" fill="#db9565"/>
          <path id="Trazado_11571" data-name="Trazado 11571" d="M2651.686,1480.492a3.536,3.536,0,0,0,2.7-2.331,1.741,1.741,0,0,0,.095-.427c.041-.64,5.663-.883,6.513-.195s.4,1.861,1.173,2.265,6.313.884,6.95,2.623c1.382,3.768-4.159,11.251-3.593,13.638s4.117,8.84,4.6,12.8c.393,3.215-1.885,5.6-10.587,6.128s-13.35-2.152-13.357-5.911c-.008-4.2,4.155-11.034,3.609-13.856s-5.624-9.843-2.67-12.911C2648.531,1480.85,2650.257,1480.766,2651.686,1480.492Z" transform="translate(-2642.195 -1477.125)" fill="#d95f76"/>
          <path id="Trazado_11572" data-name="Trazado 11572" d="M2666.347,1504.241a58.484,58.484,0,0,0-.287-8.849c.215-.034.434-.076.658-.13a7.619,7.619,0,0,0,3.214-1.568,2.12,2.12,0,0,1-.416-.138.862.862,0,0,1-.4-.457,6.772,6.772,0,0,1-2.626,1.218,6.444,6.444,0,0,1-4.374-.441,6.783,6.783,0,0,1-1.146-.691,3.552,3.552,0,0,1-.784.623,7.518,7.518,0,0,0,4.694,1.675q.1,0,.211,0a58.548,58.548,0,0,1,.281,8.766c-.853,0-1.667-.028-2.427-.066a58.137,58.137,0,0,1-8.229-1.008c.15.363.306.723.465,1.078a60,60,0,0,0,7.7.9q1.23.062,2.421.069c-.025.269-.054.536-.087.8-.492,3.889-.31,17.454-.216,22.792q.476,0,.972-.021c-.091-5.313-.27-18.875.208-22.65.038-.3.071-.61.1-.921a43.758,43.758,0,0,0,4.982-.337,34.014,34.014,0,0,0,3.388-.6c.163-.37.327-.746.489-1.124A37.949,37.949,0,0,1,2666.347,1504.241Z" transform="translate(-2649.542 -1490.877)" fill="#ffd4d4"/>
          <path id="Trazado_11573" data-name="Trazado 11573" d="M2649.981,1543.543c0-2.063-4.993-17.105-4.993-17.105h0c-1.1-3.849-3.674-8.7-4.149-10.7-.566-2.386,4.975-9.87,3.593-13.638-.416-1.134-2.918-1.732-4.821-2.124-.715,2.782.14,7.227-1.34,7.348-5.946.485-4.672,3.641-5.38,4.341-.5.494-9.057,10.218-11,15.355h0a46.3,46.3,0,0,0-2.79,11.612c-.728,6.674-2.488,10.314-1.032,11.771s6.553,3.034,8.737,2.366a12.119,12.119,0,0,1,7.463.425c2.184.91,7.281.667,8.555-.546s3.337-2.973,5.946-2.912S2649.981,1545.606,2649.981,1543.543Z" transform="translate(-2617.507 -1496.795)" fill="#ffb3b3"/>
          <path id="Trazado_11574" data-name="Trazado 11574" d="M2686.135,1553.631c2.609.061,1.213-4.126,1.213-6.189s-4.992-17.105-4.992-17.105c-1.1-3.849-3.675-8.7-4.149-10.7-.566-2.387,4.975-9.87,3.593-13.638-.24-.656-1.179-1.133-2.3-1.494a26.425,26.425,0,0,1-.71,5.868c-.728,2.366-6.31,8.009-6.249,12.559s6.067,22.753,6.189,25.908-4.126,6.31-5.279,5.036,1.456-18.323-1.517-13.955-4.793,13.166-6.249,12.742-.425-14.2-1.82-12.135-1.881,8.494-2.67,11.164a18.059,18.059,0,0,0-.239,4.928,7.312,7.312,0,0,0,3.212.047,12.12,12.12,0,0,1,7.463.425c2.184.91,7.281.668,8.555-.546S2683.527,1553.57,2686.135,1553.631Z" transform="translate(-2654.875 -1500.694)" fill="#f07a8c"/>
        </g>
        <path id="Trazado_11575" data-name="Trazado 11575" d="M2908.677,1547.106c-1.735-4.005-3.518-9.237-3.84-13.505-.2-2.681-.375-5.288-3.046-7.576-3.863-3.308-7.332-2.952-10.9.656-2.191,2.214-.779,6.453-.239,9.119.573,2.823-1.017,6.393-2.1,9.014A35.176,35.176,0,0,0,2908.677,1547.106Z" transform="translate(-2850.842 -1514.115)" fill="#fff"/>
        <path id="Trazado_11576" data-name="Trazado 11576" d="M2844.669,1709.283c-.692-3.61,8.556-21.842,4.847-29.507-.336-.695-.687-1.464-1.041-2.279a35.174,35.174,0,0,1-20.132-2.291,9.775,9.775,0,0,1-1.043,1.994c-4.338,5.543-9.637,21.391-8.538,30.853,1.619,13.945,6.748,27.107,8.207,28.021,2.455,1.54,9.707,1.732,9.856.4.244-2.19-8.028-26.378-8.028-29.8,0-3.511,6.1-16.729,6.1-16.729-.1,4.129-2.115,15.079-.617,21.816,1.6,7.218,9.555,23.3,13.383,24.851,4.021,1.629,11.163-1.23,11.553-2.6C2860.415,1729.825,2845.4,1713.115,2844.669,1709.283Z" transform="translate(-2790.641 -1644.506)" fill="#311e69"/>
        <g id="Grupo_7513" data-name="Grupo 7513" transform="translate(46.941 32.991)">
          <path id="Trazado_11577" data-name="Trazado 11577" d="M2962.04,1723.463c-.692-3.609,8.555-21.842,4.847-29.506-.336-.695-.687-1.464-1.04-2.279a33.128,33.128,0,0,1-8,.524c-1.306,4.911-2.727,10.968-2.777,14.233-.094,6.082-.842,15.439,3.088,21.146,3.515,5.106,4.558,14.659,2.93,19.014,1.486,2.194,2.879,3.766,3.949,4.2,4.021,1.629,11.163-1.23,11.553-2.6C2977.785,1744.005,2962.775,1727.3,2962.04,1723.463Z" transform="translate(-2954.952 -1691.677)" fill="#1e1240"/>
        </g>
        <path id="Trazado_11578" data-name="Trazado 11578" d="M2934.494,1519.656a5.376,5.376,0,0,1,2.538,1.831c.674,1.185,4.542,17.336,4.542,22.235a109.084,109.084,0,0,1-1.06,12.26s7.721-1.372,9.232-3.743c1.295-2.033.426-7.355-.062-9.731-.757-3.68-4.891-18.294-6.4-20.273C2941.449,1519.83,2935.854,1518.416,2934.494,1519.656Z" transform="translate(-2890.399 -1510.2)" fill="#311e69"/>
        <path id="Trazado_11579" data-name="Trazado 11579" d="M2926.428,1504.735l1.428,4.058c.232.669-.837,2.952-2.183,2.46-.394-.144-.3-1.2-.241-2l-.385-3.771Z" transform="translate(-2882.266 -1497.749)" fill="#ff6161"/>
        <path id="Trazado_11580" data-name="Trazado 11580" d="M2925.615,1512.775a4.8,4.8,0,0,0,1.219-2.172l-1.392.471Z" transform="translate(-2882.606 -1502.8)" fill="#311e69"/>
        <path id="Trazado_11581" data-name="Trazado 11581" d="M2907.141,1479.558l.774,1.482a2.471,2.471,0,0,1-.925,3.31,2.119,2.119,0,0,1-3.053-1.08c-.583-1.231-.047-2.644.085-3.335C2904.327,1478.359,2906.127,1477.92,2907.141,1479.558Z" transform="translate(-2863.864 -1475.182)" fill="#ff6161"/>
        <path id="Trazado_11582" data-name="Trazado 11582" d="M2908.154,1508.3a3.242,3.242,0,0,1-1.8.1,3.338,3.338,0,0,1-.97-.787c.01.023.018.046.028.069a2.119,2.119,0,0,0,3.053,1.081,2.372,2.372,0,0,0,1.2-1.882A3.067,3.067,0,0,1,2908.154,1508.3Z" transform="translate(-2865.338 -1499.599)" fill="#ad263d"/>
        <path id="Trazado_11583" data-name="Trazado 11583" d="M2932.99,1491.97a2.121,2.121,0,0,0,.091-.429c.033-.277.146-.682.534-.43.563.366.307,1.833-.392,1.864C2932.7,1493,2932.869,1492.32,2932.99,1491.97Z" transform="translate(-2888.997 -1485.951)" fill="#ff6161"/>
        <path id="Trazado_11584" data-name="Trazado 11584" d="M2908.793,1508.951a2.591,2.591,0,0,0,1.668,0,1.087,1.087,0,0,1-.992.619C2908.748,1509.56,2908.793,1508.951,2908.793,1508.951Z" transform="translate(-2868.273 -1501.379)" fill="#fff"/>
        <path id="Trazado_11585" data-name="Trazado 11585" d="M2763.864,1537.892c-3.865-2.821-11.8,11.744-15.727,12.679s-16.14-2.55-18.526-1.369-1.759,5.516,4.678,6.7c7.111,1.31,14.133,2.76,19.98-1.123S2768.121,1541,2763.864,1537.892Z" transform="translate(-2712.915 -1525.982)" fill="#311e69"/>
        <path id="Trazado_11586" data-name="Trazado 11586" d="M2764.5,1544.186c-3,3.369-7.577,11.7-8.691,12.764-1.415,1.351-5.789,3.562-11.01,3.328s-9.75-2.713-13.305-4.164a3.115,3.115,0,0,0-2.926,0c-.711,1.766.768,4.593,5.78,5.516,7.111,1.31,14.132,2.76,19.98-1.123C2759.863,1556.839,2767.317,1547.784,2764.5,1544.186Z" transform="translate(-2712.976 -1531.712)" fill="#1e1240"/>
        <path id="Trazado_11587" data-name="Trazado 11587" d="M2717.136,1594.8a9.293,9.293,0,0,0-1.1-3.088c-.68-.811-1.71-2.289-1.821-1.887s.517,1.606.486,1.794-1.06-1.31-1.5-1.123-.374,1.934-.156,2.745,2,3.992,2.838,3.556S2717.136,1594.8,2717.136,1594.8Z" transform="translate(-2699.614 -1570.948)" fill="#ff6161"/>
        <path id="Trazado_11588" data-name="Trazado 11588" d="M2874.581,1781.174s-8.243,1.589-8.43,8.077-1.56,11.228-1.435,14.6c.1,2.768,2.018,18.577,5.5,24.528,2.9.423,6.188.218,6.288-.677.244-2.19-8.028-26.378-8.028-29.8C2868.477,1794.392,2874.581,1781.174,2874.581,1781.174Z" transform="translate(-2830.321 -1735.734)" fill="#1e1240"/>
      </g>
      <g id="Grupo_7524" data-name="Grupo 7524" transform="translate(284.032 209.765)">
        <g id="Grupo_7515" data-name="Grupo 7515" transform="translate(28.26 158.595)">
          <path id="Trazado_11589" data-name="Trazado 11589" d="M988.578,2122.272a5.238,5.238,0,0,0,.912-2.493l1.064.048a1.972,1.972,0,0,1,1.792,1.419,1.91,1.91,0,0,0,.167.394c.192.339.786.612,1.6,1,1.289.737,2.878,1.683,2.914,2.137.06.756-7.711.382-8.969-.4C987.4,2123.961,987.912,2123.165,988.578,2122.272Z" transform="translate(-987.755 -2119.778)" fill="#1e1240"/>
        </g>
        <g id="Grupo_7516" data-name="Grupo 7516" transform="translate(0 155.851)">
          <path id="Trazado_11590" data-name="Trazado 11590" d="M785.8,2102.256a5.236,5.236,0,0,0,1.475-2.207l2.708.789a2.653,2.653,0,0,0-.211,1.734c.107.375.619.78,1.322,1.35,1.078,1.021,2.4,2.316,2.327,2.765-.12.748-7.583-1.451-8.62-2.513C784.254,2103.62,784.937,2102.967,785.8,2102.256Z" transform="translate(-784.603 -2100.049)" fill="#1e1240"/>
        </g>
        <path id="Trazado_11591" data-name="Trazado 11591" d="M950.435,1548.181c1.148-1.078,4.2-.882,7.1,2.863s5.451,8.323,6.367,8.447c1.756.237,15.023-11.43,16.963-9.951,2.756,2.1-4.879,15.519-13.786,18.521C957.259,1571.37,946.524,1551.854,950.435,1548.181Z" transform="translate(-926.657 -1468.608)" fill="#baced3"/>
        <path id="Trazado_11592" data-name="Trazado 11592" d="M985.4,1611.65l1.573-6.439s3.058,10.916,2.219,10.267A22.267,22.267,0,0,1,985.4,1611.65Z" transform="translate(-957.464 -1518.195)" fill="#1e1240"/>
        <path id="Trazado_11593" data-name="Trazado 11593" d="M1014.1,1639.854a12.866,12.866,0,0,0,3.48,1.911,8.7,8.7,0,0,0,5.02-6.854C1023.048,1630.054,1015.855,1637.879,1014.1,1639.854Z" transform="translate(-982.175 -1542.417)" fill="#311e69"/>
        <path id="Trazado_11594" data-name="Trazado 11594" d="M839.967,1740.427c-1.051-13.345-7.389-23.013-9.512-27.284-.9-2.4-19.736,4.079-20.072,5.018-3.311,9.26,1.063,21.47-.013,26.869-.452,2.265-10.428,18.33-9.649,22.612.25,1.375,3.617,2.95,4.9,2.261,9.012-4.835,12.91-16.5,13.954-19.434,2.4-6.759,2.251-25.677,4.96-20.642.471.876,4.87,12.967,4.871,14.172,0,3.9-4.285,27.613-1.093,27.613.556,0,3.211.109,3.782-.384C837.133,1766.878,840.319,1744.893,839.967,1740.427Z" transform="translate(-798.441 -1610.657)" fill="#614cd4"/>
        <g id="Grupo_7517" data-name="Grupo 7517" transform="translate(7.811 78.056)">
          <path id="Trazado_11595" data-name="Trazado 11595" d="M840.844,1547.21c2.448-6.767,13.7-6.994,17.224-5.932,6.023,1.814,4.483,20.522,6.889,23.955.183.367.4.777.637,1.223-3.805,1.574-5.335,8.7-21.065,4.916C844.637,1570.995,840.061,1549.374,840.844,1547.21Z" transform="translate(-840.754 -1540.804)" fill="#d8e7eb"/>
        </g>
        <g id="Grupo_7518" data-name="Grupo 7518" transform="translate(28.151 101.956)">
          <path id="Trazado_11596" data-name="Trazado 11596" d="M1000.349,1740.428c-1.051-13.345-7.389-23.013-9.512-27.284-.241-.641-1.76-.649-3.863-.3.411,3.678.847,7.217,1.1,8.232.585,2.339,6.724,18.782,7.308,24.336.385,3.661-4.34,11.658-7.607,16.686-.442,5.227-.437,9.514.92,9.514.556,0,3.211.109,3.782-.384C997.515,1766.879,1000.7,1744.894,1000.349,1740.428Z" transform="translate(-986.974 -1712.614)" fill="#311e69"/>
        </g>
        <g id="Grupo_7519" data-name="Grupo 7519" transform="translate(20.262 78.058)">
          <path id="Trazado_11597" data-name="Trazado 11597" d="M942.017,1565.244c-2.406-3.433-.866-22.141-6.889-23.955a16.7,16.7,0,0,0-4.863-.463,22.541,22.541,0,0,1,3.879,8.947c1.224,5.983,2.438,14.939,3.842,20.295,1.93-1.377,3.108-2.955,4.668-3.6C942.415,1566.021,942.2,1565.611,942.017,1565.244Z" transform="translate(-930.265 -1540.816)" fill="#baced3"/>
        </g>
        <path id="Trazado_11598" data-name="Trazado 11598" d="M899.005,1660.452l-4.95-.735s5.137,7.949,16.147,6.332a28.939,28.939,0,0,1-.663-3.869C904.954,1661.164,899.005,1660.452,899.005,1660.452Z" transform="translate(-878.83 -1565.119)" fill="#311e69"/>
        <path id="Trazado_11599" data-name="Trazado 11599" d="M899.451,1545.748s-4.257-.124-5.239.387,2.866,4.49,5.145,3.976S899.451,1545.748,899.451,1545.748Z" transform="translate(-878.829 -1466.992)" fill="#ff6161"/>
        <path id="Trazado_11600" data-name="Trazado 11600" d="M897.433,1508.951a7.8,7.8,0,0,0-1.716,2.383c-.28.987,1.8.919,3.344-.736a14.3,14.3,0,0,0,1.925-2.36S898.212,1508.282,897.433,1508.951Z" transform="translate(-880.239 -1434.712)" fill="#1e1240"/>
        <path id="Trazado_11601" data-name="Trazado 11601" d="M908.2,1508.534s-.055,1.419.648,1.678,1.616-2.214.81-2.427S908.2,1508.534,908.2,1508.534Z" transform="translate(-891.008 -1434.295)" fill="#ff8f8f"/>
        <path id="Trazado_11602" data-name="Trazado 11602" d="M902.651,1519.472l-1.542,4.36c-.016.636,3.378,2.458,4.4,1.67.3-.231.226-.842-.039-1.507l-1.587-3.626Z" transform="translate(-884.902 -1444.383)" fill="#ff6161"/>
        <path id="Trazado_11603" data-name="Trazado 11603" d="M913.08,1529.09c-.7-.136-1.654-.334-1.654-.334a3.031,3.031,0,0,0,1.006,1.975,2.9,2.9,0,0,0,1.683.727Z" transform="translate(-893.784 -1452.376)" fill="#311e69"/>
        <path id="Trazado_11604" data-name="Trazado 11604" d="M912.526,1501.383l-1.025,2.444a1.616,1.616,0,0,0,.986,2.028,4.467,4.467,0,0,0,1.964.238c.725-.029,1.149-.688,1.225-1.628a8.812,8.812,0,0,0-.328-2.98C914.956,1500.1,913.311,1499.84,912.526,1501.383Z" transform="translate(-893.778 -1427.905)" fill="#ff6161"/>
        <path id="Trazado_11605" data-name="Trazado 11605" d="M912.478,1509.925a2.314,2.314,0,0,1-.005-.49c.025-.311-.01-.779-.49-.589-.7.277-.74,1.941.019,2.129C912.565,1511.115,912.532,1510.336,912.478,1509.925Z" transform="translate(-893.801 -1435.197)" fill="#ff6161"/>
        <path id="Trazado_11606" data-name="Trazado 11606" d="M930.065,1521.974a4.355,4.355,0,0,0,1.429.159.561.561,0,0,1-.356.45A.763.763,0,0,1,930.065,1521.974Z" transform="translate(-909.831 -1446.537)" fill="#fff"/>
        <path id="Trazado_11607" data-name="Trazado 11607" d="M914.749,1526.485c-.79-.226-1.5.941-2.832-.327a2.069,2.069,0,0,1-.394-1.077l-.022.053a1.616,1.616,0,0,0,.986,2.028,4.465,4.465,0,0,0,1.964.238,1.126,1.126,0,0,0,.979-.678A3.854,3.854,0,0,1,914.749,1526.485Z" transform="translate(-893.778 -1449.212)" fill="#ad263d"/>
        <path id="Trazado_11608" data-name="Trazado 11608" d="M908.607,1490.774l2.621-.157s.081-2.464-.486-2.679a4.947,4.947,0,0,0-3.975.47c-.862.69-.173,2.88-.173,2.88l.785-.271A4.625,4.625,0,0,1,908.607,1490.774Z" transform="translate(-889.4 -1417.049)" fill="#311e69"/>
        <path id="Trazado_11609" data-name="Trazado 11609" d="M927.123,1501.336l.045.223a.165.165,0,0,0,.2.129c.181-.04.463-.1.588-.113s.388-.009.575,0a.166.166,0,0,0,.166-.2l-.043-.215a.164.164,0,0,0-.142-.132,4.357,4.357,0,0,0-1.257.114A.166.166,0,0,0,927.123,1501.336Z" transform="translate(-907.295 -1428.495)" fill="#ff8f8f"/>
        <g id="Grupo_7521" data-name="Grupo 7521" transform="translate(21.919)">
          <path id="Trazado_11610" data-name="Trazado 11610" d="M1104.469,1409.451c-1.152-8.476-28.49-25.554-37.514-32.14-.828,2.838-2.578,6.649-6.224,8.8,4.861,5.481,11,11.484,13.517,14.957,4.011,5.532,4.968,20.918,12.354,23.934C1097.061,1429.271,1105.808,1419.3,1104.469,1409.451Zm-16.544,10.1c-6.141-1.487-9.248-23.421-3.9-23.222s11.958,8.33,11.958,8.33C1104.981,1416.658,1094.065,1421.041,1087.925,1419.553Z" transform="translate(-1044.239 -1321.998)" fill="#d95f76"/>
          <path id="Trazado_11611" data-name="Trazado 11611" d="M965.738,1038.327a15.82,15.82,0,0,1-2.758-2.3l-15.262-52.477a10.38,10.38,0,0,0-4.559,8.533c-.043,5.821,7.493,40.445,10.075,46.475.962,2.245,3.4,5.312,6.279,8.563C963.161,1044.977,964.911,1041.165,965.738,1038.327Z" transform="translate(-943.023 -983.014)" fill="#c7d9dd"/>
          <g id="Grupo_7520" data-name="Grupo 7520">
            <path id="Trazado_11612" data-name="Trazado 11612" d="M952.508,1403.667a14.511,14.511,0,0,1-3.358,7.89,67.1,67.1,0,0,0-4.256,5.453c-1.835,2.761-3.112,7.455-2.609,15.685.4,6.587,1.691,22.854,15.429,23.771s8.993-35.073,5.719-41.238c-1.815-3.418-3.54-6.595-3.54-6.595l0-.519c-.656-.7-1.347-1.477-2.044-2.32A5.42,5.42,0,0,0,952.508,1403.667Zm8.966,19.387c3.384,9.9.969,19.665-.783,24.129s-6.109,5.7-10.958-.321-3.488-17.616-2.808-21.762c.878-5.356,4.794-7.181,8.574-6.728S961.474,1423.054,961.474,1423.054Z" transform="translate(-942.175 -1344.611)" fill="#d95f76"/>
            <path id="Trazado_11613" data-name="Trazado 11613" d="M1018.084,980.224l-1.12-.547-.426,57.563h0a14.512,14.512,0,0,1-.08,1.494,5.42,5.42,0,0,1,5.345,2.128c.7.843,1.388,1.62,2.044,2.32l.363-53.264A10.572,10.572,0,0,0,1018.084,980.224Z" transform="translate(-1006.125 -979.677)" fill="#ddecf0"/>
          </g>
          <path id="Trazado_11614" data-name="Trazado 11614" d="M1033.274,1358.6a2.032,2.032,0,1,1-2.206-1.842A2.032,2.032,0,0,1,1033.274,1358.6Z" transform="translate(-1017.11 -1304.296)" fill="#b1c6c9"/>
        </g>
        <g id="Grupo_7522" data-name="Grupo 7522" transform="translate(8.026 78.232)">
          <path id="Trazado_11615" data-name="Trazado 11615" d="M842.3,1569.3c.358,5.976,9.449,13.4,18.679,15.107,10.676,1.977,20.006-13.978,15.322-17.875-2-1.666-10.017,10.6-14.336,10.719-1.807.048-8.945-6.144-12.755-7.921S842.195,1567.5,842.3,1569.3Z" transform="translate(-842.3 -1562.999)" fill="#ddecf0"/>
          <path id="Trazado_11616" data-name="Trazado 11616" d="M843.043,1570.585c2.277,1.025,5.585,2.694,6.609,4.144,1.611,2.283-.128,3.292,4.493,4.684s7.461,2.888,9.967,3.017,7.46-4.623,8.981-6.724c1.394-1.924,2.175-7.2,3.735-8.749a.68.68,0,0,1,.115.075c4.684,3.9-4.646,19.852-15.322,17.875C852.791,1583.273,844.094,1576.41,843.043,1570.585Z" transform="translate(-842.94 -1563.495)" fill="#baced3"/>
          <path id="Trazado_11617" data-name="Trazado 11617" d="M1077.285,1545.385a8.557,8.557,0,0,0,.778-1.629c.051-.395-.617-1.292-.267-1.46s.986.76,1.124,1.225,2.844-1.776,3.2-1.419,0,1.385.12,1.855.016,1.295-1.457,2.571S1076.117,1548.079,1077.285,1545.385Z" transform="translate(-1044.381 -1542.064)" fill="#ff6161"/>
        </g>
        <g id="Grupo_7523" data-name="Grupo 7523" transform="translate(2.236 118.517)">
          <path id="Trazado_11618" data-name="Trazado 11618" d="M818.672,1840.672c-.26,4.9-5.3,18.343-8.957,20.828-1.994,1.356-4.58,3.167-7.582,2.874-1.012,2.465-1.63,4.571-1.413,5.763.25,1.375,3.617,2.95,4.9,2.261,9.012-4.835,12.91-16.5,13.954-19.434,1.989-5.594,2.227-19.517,3.786-21.3C823.362,1831.669,818.933,1835.776,818.672,1840.672Z" transform="translate(-800.677 -1831.668)" fill="#311e69"/>
        </g>
      </g>
    </g>
    <path id="Trazado_11008" data-name="Trazado 11008" d="M107.222,298.862Zm2.4-9.15a4.623,4.623,0,1,1-1.354,3.27,4.608,4.608,0,0,1,1.354-3.27Zm1-4.582a8.121,8.121,0,0,0-1.812.771,8.285,8.285,0,0,0-1.59,1.2.283.283,0,0,1-.338.042l-2.148-1.241-.011-.008a.537.537,0,0,0-.715.2l-.009.015-1.511,2.617a.536.536,0,0,0,.194.728l.015.009,2.13,1.231a.283.283,0,0,1,.134.313h0a8.282,8.282,0,0,0-.179,2.968,8.03,8.03,0,0,0,.18.977.286.286,0,0,1-.15.323l-2.13,1.229h0a.537.537,0,0,0-.247.324.528.528,0,0,0,.052.4l1.52,2.633h0a.532.532,0,0,0,.727.194l.017-.007,2.133-1.232a.282.282,0,0,1,.337.041,8.2,8.2,0,0,0,1.59,1.2,8.115,8.115,0,0,0,1.823.775.285.285,0,0,1,.206.274v2.478a.534.534,0,0,0,.532.531h3.04a.532.532,0,0,0,.532-.531v-2.479a.286.286,0,0,1,.219-.276,8.073,8.073,0,0,0,1.811-.772,8.188,8.188,0,0,0,1.591-1.2.284.284,0,0,1,.352-.032l2.134,1.232a.537.537,0,0,0,.4.052.531.531,0,0,0,.323-.248l.009-.015,1.511-2.618h0a.532.532,0,0,0,.052-.4.538.538,0,0,0-.246-.324l-2.146-1.238a.283.283,0,0,1-.134-.313h0a8.1,8.1,0,0,0,.179-.978,8.334,8.334,0,0,0,0-1.992,8.116,8.116,0,0,0-.179-.976.283.283,0,0,1,.15-.322l2.13-1.231a.534.534,0,0,0,.246-.324.528.528,0,0,0-.052-.4l-.008-.015-1.511-2.619h0a.536.536,0,0,0-.727-.2h0l-2.148,1.241a.284.284,0,0,1-.345-.048,8.192,8.192,0,0,0-1.584-1.192,8.087,8.087,0,0,0-1.823-.775.286.286,0,0,1-.206-.274v-2.478a.531.531,0,0,0-.532-.531h-3.04a.532.532,0,0,0-.532.531v2.478A.284.284,0,0,1,110.624,285.131Z" transform="translate(922.556 -189.69)" fill="#f9ad3e" fill-rule="evenodd"/>
    <path id="Trazado_11015" data-name="Trazado 11015" d="M158.369,295.955a.793.793,0,0,0-1.586,0v1.864h-1.864a.794.794,0,0,0,0,1.587h1.864v1.864a.793.793,0,0,0,1.586,0v-1.864h1.864a.794.794,0,0,0,0-1.587h-1.864Z" transform="translate(906.765 -193.756)" fill="#00a99a" fill-rule="evenodd"/>
    <path id="Trazado_11017" data-name="Trazado 11017" d="M138.982,404.523a.793.793,0,0,0-1.586,0v1.864h-1.864a.793.793,0,0,0,0,1.587H137.4v1.864a.793.793,0,0,0,1.586,0v-1.864h1.864a.793.793,0,1,0,0-1.587h-1.864Z" transform="translate(912.686 -226.911)" fill="#f9ad3e" fill-rule="evenodd"/>
    <path id="Trazado_11018" data-name="Trazado 11018" d="M36.876,321.8a.793.793,0,0,0-1.587,0v1.865H33.426a.793.793,0,0,0,0,1.586H35.29v1.864a.793.793,0,0,0,1.587,0v-1.864h1.864a.793.793,0,0,0,0-1.586H36.876Z" transform="translate(943.867 -201.65)" fill="#00a99a" fill-rule="evenodd"/>
    <path id="Trazado_11011" data-name="Trazado 11011" d="M664.679,236.9Zm2.4-9.151a4.627,4.627,0,1,1-1.352,3.269,4.612,4.612,0,0,1,1.352-3.269Zm1-4.582a8.118,8.118,0,0,0-1.811.772,8.208,8.208,0,0,0-1.59,1.2.284.284,0,0,1-.339.041l-2.148-1.24-.011-.007a.538.538,0,0,0-.716.2l-.01.015-1.509,2.617a.532.532,0,0,0,.2.728l.013.01,2.132,1.229a.286.286,0,0,1,.134.313h0a8.225,8.225,0,0,0-.181.977,8.525,8.525,0,0,0,0,1.991,8.266,8.266,0,0,0,.181.977.285.285,0,0,1-.151.322l-2.128,1.229h0a.543.543,0,0,0-.249.324.534.534,0,0,0,.053.4l1.519,2.632h0a.536.536,0,0,0,.727.2l.016-.009,2.133-1.232a.285.285,0,0,1,.338.042,8.191,8.191,0,0,0,1.59,1.2,8.1,8.1,0,0,0,1.823.775.286.286,0,0,1,.206.274v2.478a.535.535,0,0,0,.532.531h3.041a.536.536,0,0,0,.532-.531v-2.478a.285.285,0,0,1,.217-.277,8.125,8.125,0,0,0,1.812-.771,8.274,8.274,0,0,0,1.59-1.2.284.284,0,0,1,.353-.033l2.132,1.232a.536.536,0,0,0,.727-.2l.01-.015,1.511-2.619h0a.527.527,0,0,0,.052-.4.534.534,0,0,0-.246-.324l-2.146-1.238a.282.282,0,0,1-.134-.313h0a8.291,8.291,0,0,0,.179-.976,8.346,8.346,0,0,0,0-1.993,8.25,8.25,0,0,0-.179-.977.284.284,0,0,1,.149-.322l2.131-1.23a.536.536,0,0,0,.194-.727l-.009-.016-1.51-2.618h0a.539.539,0,0,0-.729-.2h0l-2.148,1.24a.283.283,0,0,1-.345-.047,8.145,8.145,0,0,0-3.408-1.968.284.284,0,0,1-.2-.273v-2.478a.536.536,0,0,0-.532-.531H668.83a.535.535,0,0,0-.532.531v2.478A.283.283,0,0,1,668.08,223.163Z" transform="translate(-11.681 -91.766)" fill="#00a99a" fill-rule="evenodd"/>
    <path id="Trazado_11012" data-name="Trazado 11012" d="M693.457,270.1a.792.792,0,1,0-1.584,0v1.866h-1.866a.793.793,0,0,0,0,1.586h1.866v1.864a.792.792,0,1,0,1.584,0v-1.864h1.864a.793.793,0,1,0,0-1.586h-1.864Z" transform="translate(-20.641 -106.862)" fill="#00a99a" fill-rule="evenodd"/>
    <path id="Trazado_11620" data-name="Trazado 11620" d="M158.369,295.955a.793.793,0,0,0-1.586,0v1.864h-1.864a.794.794,0,0,0,0,1.587h1.864v1.864a.793.793,0,0,0,1.586,0v-1.864h1.864a.794.794,0,0,0,0-1.587h-1.864Z" transform="translate(486.765 -33.756)" fill="#00a99a" fill-rule="evenodd"/>
    <path id="Trazado_11006" data-name="Trazado 11006" d="M52.593,456.273H48.811a2.879,2.879,0,0,1-2.872-2.871h0a2.88,2.88,0,0,1,2.872-2.872h3.782a2.88,2.88,0,0,1,2.872,2.872h0A2.88,2.88,0,0,1,52.593,456.273Z" transform="translate(584.804 -118.203)" fill="#feeec6" fill-rule="evenodd"/>
    <path id="Trazado_11007" data-name="Trazado 11007" d="M67.531,456.273H483.79a2.879,2.879,0,0,0,2.872-2.871h0a2.88,2.88,0,0,0-2.872-2.872H67.531A2.88,2.88,0,0,0,64.66,453.4h0A2.879,2.879,0,0,0,67.531,456.273Z" transform="translate(579.087 -118.203)" fill="#feeec6" fill-rule="evenodd"/>
  </g>
</svg>
